<mxfile host="app.diagrams.net" modified="2023-10-23T05:22:05.454Z" agent="Mozilla/5.0 (Windows NT 10.0; Win64; x64) AppleWebKit/537.36 (KHTML, like Gecko) Chrome/118.0.0.0 Safari/537.36 Edg/118.0.2088.61" etag="3HBcPG5Byxn9kFc3sK3l" version="22.0.6" type="github">
  <diagram id="6a731a19-8d31-9384-78a2-239565b7b9f0" name="Page-1">
    <mxGraphModel dx="3070" dy="1025" grid="1" gridSize="10" guides="1" tooltips="1" connect="1" arrows="1" fold="1" page="1" pageScale="1" pageWidth="1169" pageHeight="827" background="none" math="0" shadow="0">
      <root>
        <mxCell id="0" />
        <mxCell id="1" parent="0" />
        <mxCell id="NJPSFqTKnOia2GW7wcEC-1544" value="" style="edgeStyle=orthogonalEdgeStyle;rounded=0;orthogonalLoop=1;jettySize=auto;html=1;fontFamily=noto sans thai;fontSource=https%3A%2F%2Ffonts.googleapis.com%2Fcss%3Ffamily%3Dnoto%2Bsans%2Bthai;" edge="1" parent="1" source="1515" target="NJPSFqTKnOia2GW7wcEC-1543">
          <mxGeometry relative="1" as="geometry" />
        </mxCell>
        <mxCell id="NJPSFqTKnOia2GW7wcEC-1546" value="" style="edgeStyle=orthogonalEdgeStyle;rounded=0;orthogonalLoop=1;jettySize=auto;html=1;" edge="1" parent="1" source="1515" target="NJPSFqTKnOia2GW7wcEC-1545">
          <mxGeometry relative="1" as="geometry" />
        </mxCell>
        <mxCell id="1515" value="HIV &amp;amp; STI&lt;br&gt;&lt;span style=&quot;font-weight: normal;&quot;&gt;&lt;i&gt;Data Source&lt;/i&gt;&lt;/span&gt;" style="ellipse;whiteSpace=wrap;html=1;shadow=0;fontFamily=noto sans thai;fontSize=30;fontColor=#2F5B7C;align=center;strokeColor=#2F5B7C;strokeWidth=6;fillColor=#FFFFFF;fontStyle=1;gradientColor=none;fontSource=https%3A%2F%2Ffonts.googleapis.com%2Fcss%3Ffamily%3Dnoto%2Bsans%2Bthai;" parent="1" vertex="1">
          <mxGeometry x="1036" y="777" width="270" height="103.5" as="geometry" />
        </mxCell>
        <mxCell id="NJPSFqTKnOia2GW7wcEC-1555" value="" style="rounded=0;orthogonalLoop=1;jettySize=auto;html=1;" edge="1" parent="1" source="NJPSFqTKnOia2GW7wcEC-1543" target="NJPSFqTKnOia2GW7wcEC-1554">
          <mxGeometry relative="1" as="geometry" />
        </mxCell>
        <mxCell id="NJPSFqTKnOia2GW7wcEC-1557" value="" style="edgeStyle=orthogonalEdgeStyle;rounded=0;orthogonalLoop=1;jettySize=auto;html=1;" edge="1" parent="1" source="NJPSFqTKnOia2GW7wcEC-1543" target="NJPSFqTKnOia2GW7wcEC-1556">
          <mxGeometry relative="1" as="geometry" />
        </mxCell>
        <mxCell id="NJPSFqTKnOia2GW7wcEC-1560" value="" style="rounded=0;orthogonalLoop=1;jettySize=auto;html=1;exitX=0.5;exitY=1;exitDx=0;exitDy=0;" edge="1" parent="1" source="1515" target="NJPSFqTKnOia2GW7wcEC-1559">
          <mxGeometry relative="1" as="geometry" />
        </mxCell>
        <mxCell id="NJPSFqTKnOia2GW7wcEC-1561" style="rounded=0;orthogonalLoop=1;jettySize=auto;html=1;exitX=0;exitY=1;exitDx=0;exitDy=0;entryX=1;entryY=0;entryDx=0;entryDy=0;" edge="1" parent="1" source="NJPSFqTKnOia2GW7wcEC-1543" target="NJPSFqTKnOia2GW7wcEC-1563">
          <mxGeometry relative="1" as="geometry">
            <mxPoint x="510" y="970" as="targetPoint" />
          </mxGeometry>
        </mxCell>
        <mxCell id="NJPSFqTKnOia2GW7wcEC-1565" style="rounded=0;orthogonalLoop=1;jettySize=auto;html=1;exitX=0;exitY=0;exitDx=0;exitDy=0;entryX=1;entryY=1;entryDx=0;entryDy=0;" edge="1" parent="1" source="NJPSFqTKnOia2GW7wcEC-1543" target="NJPSFqTKnOia2GW7wcEC-1564">
          <mxGeometry relative="1" as="geometry" />
        </mxCell>
        <mxCell id="NJPSFqTKnOia2GW7wcEC-1543" value="กลุ่มผู้ติดเชื้อ" style="ellipse;whiteSpace=wrap;html=1;shadow=0;fontFamily=noto sans thai;fontSize=30;fontColor=#2F5B7C;align=center;strokeColor=#2F5B7C;strokeWidth=6;fillColor=#FFFFFF;fontStyle=1;gradientColor=none;fontSource=https%3A%2F%2Ffonts.googleapis.com%2Fcss%3Ffamily%3Dnoto%2Bsans%2Bthai;" vertex="1" parent="1">
          <mxGeometry x="650" y="777" width="270" height="103.5" as="geometry" />
        </mxCell>
        <mxCell id="NJPSFqTKnOia2GW7wcEC-1549" value="" style="rounded=0;orthogonalLoop=1;jettySize=auto;html=1;" edge="1" parent="1" source="NJPSFqTKnOia2GW7wcEC-1545" target="NJPSFqTKnOia2GW7wcEC-1548">
          <mxGeometry relative="1" as="geometry" />
        </mxCell>
        <mxCell id="NJPSFqTKnOia2GW7wcEC-1551" value="" style="rounded=0;orthogonalLoop=1;jettySize=auto;html=1;" edge="1" parent="1" source="NJPSFqTKnOia2GW7wcEC-1545" target="NJPSFqTKnOia2GW7wcEC-1550">
          <mxGeometry relative="1" as="geometry" />
        </mxCell>
        <mxCell id="NJPSFqTKnOia2GW7wcEC-1553" value="" style="rounded=0;orthogonalLoop=1;jettySize=auto;html=1;" edge="1" parent="1" source="NJPSFqTKnOia2GW7wcEC-1545" target="NJPSFqTKnOia2GW7wcEC-1552">
          <mxGeometry relative="1" as="geometry" />
        </mxCell>
        <mxCell id="NJPSFqTKnOia2GW7wcEC-1545" value="กลุ่มเฝ้าระวัง" style="ellipse;whiteSpace=wrap;html=1;shadow=0;fontFamily=noto sans thai;fontSize=30;fontColor=#2F5B7C;align=center;strokeColor=#2F5B7C;strokeWidth=6;fillColor=#FFFFFF;fontStyle=1;gradientColor=none;fontSource=https%3A%2F%2Ffonts.googleapis.com%2Fcss%3Ffamily%3Dnoto%2Bsans%2Bthai;" vertex="1" parent="1">
          <mxGeometry x="1386" y="777" width="270" height="103.5" as="geometry" />
        </mxCell>
        <mxCell id="NJPSFqTKnOia2GW7wcEC-1548" value="บุคคล" style="ellipse;whiteSpace=wrap;html=1;shadow=0;fontFamily=noto sans thai;fontSize=30;fontColor=#2F5B7C;align=center;strokeColor=#2F5B7C;strokeWidth=6;fillColor=#FFFFFF;fontStyle=1;gradientColor=none;fontSource=https%3A%2F%2Ffonts.googleapis.com%2Fcss%3Ffamily%3Dnoto%2Bsans%2Bthai;" vertex="1" parent="1">
          <mxGeometry x="1540" y="530" width="270" height="103.5" as="geometry" />
        </mxCell>
        <mxCell id="NJPSFqTKnOia2GW7wcEC-1550" value="ระบบติดตาม" style="ellipse;whiteSpace=wrap;html=1;shadow=0;fontFamily=noto sans thai;fontSize=30;fontColor=#2F5B7C;align=center;strokeColor=#2F5B7C;strokeWidth=6;fillColor=#FFFFFF;fontStyle=1;gradientColor=none;fontSource=https%3A%2F%2Ffonts.googleapis.com%2Fcss%3Ffamily%3Dnoto%2Bsans%2Bthai;" vertex="1" parent="1">
          <mxGeometry x="1830" y="960.5" width="270" height="103.5" as="geometry" />
        </mxCell>
        <mxCell id="NJPSFqTKnOia2GW7wcEC-1552" value="ยา/อุปกรณ์" style="ellipse;whiteSpace=wrap;html=1;shadow=0;fontFamily=noto sans thai;fontSize=30;fontColor=#2F5B7C;align=center;strokeColor=#2F5B7C;strokeWidth=6;fillColor=#FFFFFF;fontStyle=1;gradientColor=none;fontSource=https%3A%2F%2Ffonts.googleapis.com%2Fcss%3Ffamily%3Dnoto%2Bsans%2Bthai;" vertex="1" parent="1">
          <mxGeometry x="1754" y="697" width="270" height="103.5" as="geometry" />
        </mxCell>
        <mxCell id="NJPSFqTKnOia2GW7wcEC-1554" value="HIV" style="ellipse;whiteSpace=wrap;html=1;shadow=0;fontFamily=noto sans thai;fontSize=30;fontColor=#2F5B7C;align=center;strokeColor=#2F5B7C;strokeWidth=6;fillColor=#FFFFFF;fontStyle=1;gradientColor=none;fontSource=https%3A%2F%2Ffonts.googleapis.com%2Fcss%3Ffamily%3Dnoto%2Bsans%2Bthai;" vertex="1" parent="1">
          <mxGeometry x="700" y="500" width="270" height="103.5" as="geometry" />
        </mxCell>
        <mxCell id="NJPSFqTKnOia2GW7wcEC-1556" value="STI" style="ellipse;whiteSpace=wrap;html=1;shadow=0;fontFamily=noto sans thai;fontSize=30;fontColor=#2F5B7C;align=center;strokeColor=#2F5B7C;strokeWidth=6;fillColor=#FFFFFF;fontStyle=1;gradientColor=none;fontSource=https%3A%2F%2Ffonts.googleapis.com%2Fcss%3Ffamily%3Dnoto%2Bsans%2Bthai;" vertex="1" parent="1">
          <mxGeometry x="-220" y="777" width="270" height="103.5" as="geometry" />
        </mxCell>
        <mxCell id="NJPSFqTKnOia2GW7wcEC-1558" value="&lt;h1 style=&quot;font-size: 18px;&quot;&gt;&lt;font style=&quot;font-size: 18px;&quot;&gt;HIV &amp;amp; STI&lt;/font&gt;&lt;/h1&gt;&lt;p style=&quot;font-size: 18px;&quot;&gt;HIV ย่อมาจาก Humanes Immundefizienz-Virus หรือเชื้อไวรัสที่ก่อให้เกิดโรคภูมิคุ้มกันบกพร่อง เป็นเชื้อไวรัสที่ก่อโรคติดต่อทางเพศสัมพันธ์ที่รู้จักกันดีที่สุด&lt;br style=&quot;font-size: 18px;&quot;&gt;&lt;/p&gt;&lt;p style=&quot;font-size: 18px;&quot;&gt;&lt;font style=&quot;font-size: 18px;&quot;&gt;STI ย่อมาจาก Sexually Transmitted Infections หมายถึงโรคหรืออาการเจ็บป่วยที่ติดต่อกันได้ผ่านการมีเพศสัมพันธ์หรือมีกิจกรรมทางเพศ&lt;br style=&quot;font-size: 18px;&quot;&gt;&lt;/font&gt;&lt;/p&gt;" style="text;html=1;strokeColor=none;fillColor=none;spacing=5;spacingTop=-20;whiteSpace=wrap;overflow=hidden;rounded=0;fontFamily=noto sans thai;fontSource=https%3A%2F%2Ffonts.googleapis.com%2Fcss%3Ffamily%3Dnoto%2Bsans%2Bthai;fontSize=18;" vertex="1" parent="1">
          <mxGeometry x="1010" y="560" width="410" height="230" as="geometry" />
        </mxCell>
        <mxCell id="NJPSFqTKnOia2GW7wcEC-1559" value="สถานพยาบาล/&lt;br&gt;มูลนิธิ/..." style="ellipse;whiteSpace=wrap;html=1;shadow=0;fontFamily=noto sans thai;fontSize=30;fontColor=#2F5B7C;align=center;strokeColor=#2F5B7C;strokeWidth=6;fillColor=#FFFFFF;fontStyle=1;gradientColor=none;fontSource=https%3A%2F%2Ffonts.googleapis.com%2Fcss%3Ffamily%3Dnoto%2Bsans%2Bthai;" vertex="1" parent="1">
          <mxGeometry x="1036" y="1120" width="270" height="103.5" as="geometry" />
        </mxCell>
        <mxCell id="NJPSFqTKnOia2GW7wcEC-1563" value="ยารักษา/ต้าน" style="ellipse;whiteSpace=wrap;html=1;shadow=0;fontFamily=noto sans thai;fontSize=30;fontColor=#2F5B7C;align=center;strokeColor=#2F5B7C;strokeWidth=6;fillColor=#FFFFFF;fontStyle=1;gradientColor=none;fontSource=https%3A%2F%2Ffonts.googleapis.com%2Fcss%3Ffamily%3Dnoto%2Bsans%2Bthai;" vertex="1" parent="1">
          <mxGeometry x="320" y="960.5" width="270" height="103.5" as="geometry" />
        </mxCell>
        <mxCell id="NJPSFqTKnOia2GW7wcEC-1564" value="Lab/Test" style="ellipse;whiteSpace=wrap;html=1;shadow=0;fontFamily=noto sans thai;fontSize=30;fontColor=#2F5B7C;align=center;strokeColor=#2F5B7C;strokeWidth=6;fillColor=#FFFFFF;fontStyle=1;gradientColor=none;fontSource=https%3A%2F%2Ffonts.googleapis.com%2Fcss%3Ffamily%3Dnoto%2Bsans%2Bthai;" vertex="1" parent="1">
          <mxGeometry x="340" y="593.5" width="270" height="103.5" as="geometry" />
        </mxCell>
        <mxCell id="NJPSFqTKnOia2GW7wcEC-1587" value="&lt;font style=&quot;font-size: 20px;&quot;&gt;HDC 43Files&lt;/font&gt;" style="rounded=1;whiteSpace=wrap;html=1;shadow=0;strokeColor=#2F5B7C;strokeWidth=3;align=center;verticalAlign=middle;fontFamily=noto sans thai;fontSource=https%3A%2F%2Ffonts.googleapis.com%2Fcss%3Ffamily%3Dnoto%2Bsans%2Bthai;fontSize=30;fontColor=#2F5B7C;fillColor=#FFFFFF;gradientColor=none;arcSize=24;fontStyle=1" vertex="1" parent="1">
          <mxGeometry x="1130" y="367" width="154" height="50" as="geometry" />
        </mxCell>
        <mxCell id="NJPSFqTKnOia2GW7wcEC-1588" value="&lt;font style=&quot;font-size: 20px;&quot;&gt;NAP+ ATI&lt;/font&gt;" style="rounded=1;whiteSpace=wrap;html=1;shadow=0;strokeColor=#2F5B7C;strokeWidth=3;align=center;verticalAlign=middle;fontFamily=noto sans thai;fontSource=https%3A%2F%2Ffonts.googleapis.com%2Fcss%3Ffamily%3Dnoto%2Bsans%2Bthai;fontSize=30;fontColor=#2F5B7C;fillColor=#FFFFFF;gradientColor=none;arcSize=24;fontStyle=1" vertex="1" parent="1">
          <mxGeometry x="1060" y="290" width="154" height="50" as="geometry" />
        </mxCell>
        <mxCell id="NJPSFqTKnOia2GW7wcEC-1590" value="&lt;font style=&quot;font-size: 20px;&quot;&gt;R506/507&lt;/font&gt;" style="rounded=1;whiteSpace=wrap;html=1;shadow=0;strokeColor=#2F5B7C;strokeWidth=3;align=center;verticalAlign=middle;fontFamily=noto sans thai;fontSource=https%3A%2F%2Ffonts.googleapis.com%2Fcss%3Ffamily%3Dnoto%2Bsans%2Bthai;fontSize=30;fontColor=#2F5B7C;fillColor=#FFFFFF;gradientColor=none;arcSize=24;" vertex="1" parent="1">
          <mxGeometry x="966" y="220" width="154" height="50" as="geometry" />
        </mxCell>
        <mxCell id="NJPSFqTKnOia2GW7wcEC-1592" value="&lt;font style=&quot;font-size: 20px;&quot;&gt;RIHIS - Routinely Integrated HIV Information System&lt;/font&gt;" style="rounded=1;whiteSpace=wrap;html=1;shadow=0;strokeColor=#2F5B7C;strokeWidth=3;align=center;verticalAlign=middle;fontFamily=noto sans thai;fontSource=https%3A%2F%2Ffonts.googleapis.com%2Fcss%3Ffamily%3Dnoto%2Bsans%2Bthai;fontSize=30;fontColor=#2F5B7C;fillColor=#FFFFFF;gradientColor=none;arcSize=24;" vertex="1" parent="1">
          <mxGeometry x="440" y="120" width="320" height="70" as="geometry" />
        </mxCell>
        <mxCell id="NJPSFqTKnOia2GW7wcEC-1594" value="&lt;font style=&quot;font-size: 20px;&quot;&gt;BSMS&lt;/font&gt;" style="rounded=1;whiteSpace=wrap;html=1;shadow=0;strokeColor=#2F5B7C;strokeWidth=3;align=center;verticalAlign=middle;fontFamily=noto sans thai;fontSource=https%3A%2F%2Ffonts.googleapis.com%2Fcss%3Ffamily%3Dnoto%2Bsans%2Bthai;fontSize=30;fontColor=#2F5B7C;fillColor=#FFFFFF;gradientColor=none;arcSize=24;" vertex="1" parent="1">
          <mxGeometry x="1280" y="240" width="154" height="50" as="geometry" />
        </mxCell>
        <mxCell id="NJPSFqTKnOia2GW7wcEC-1595" value="&lt;font style=&quot;font-size: 20px;&quot;&gt;HCIS/JHCIS&lt;/font&gt;" style="rounded=1;whiteSpace=wrap;html=1;shadow=0;strokeColor=#2F5B7C;strokeWidth=3;align=center;verticalAlign=middle;fontFamily=noto sans thai;fontSource=https%3A%2F%2Ffonts.googleapis.com%2Fcss%3Ffamily%3Dnoto%2Bsans%2Bthai;fontSize=30;fontColor=#2F5B7C;fillColor=#FFFFFF;gradientColor=none;arcSize=24;" vertex="1" parent="1">
          <mxGeometry x="1340" y="314" width="154" height="50" as="geometry" />
        </mxCell>
        <mxCell id="NJPSFqTKnOia2GW7wcEC-1596" value="&lt;font style=&quot;font-size: 20px;&quot;&gt;HIS รพ.&lt;/font&gt;" style="rounded=1;whiteSpace=wrap;html=1;shadow=0;strokeColor=#2F5B7C;strokeWidth=3;align=center;verticalAlign=middle;fontFamily=noto sans thai;fontSource=https%3A%2F%2Ffonts.googleapis.com%2Fcss%3Ffamily%3Dnoto%2Bsans%2Bthai;fontSize=30;fontColor=#2F5B7C;fillColor=#FFFFFF;gradientColor=none;arcSize=24;" vertex="1" parent="1">
          <mxGeometry x="1330" y="420" width="154" height="50" as="geometry" />
        </mxCell>
        <mxCell id="NJPSFqTKnOia2GW7wcEC-1598" value="&lt;span style=&quot;font-size: 20px;&quot;&gt;Anti-HIV&lt;/span&gt;" style="rounded=1;whiteSpace=wrap;html=1;shadow=0;strokeColor=#2F5B7C;strokeWidth=3;align=center;verticalAlign=middle;fontFamily=noto sans thai;fontSource=https%3A%2F%2Ffonts.googleapis.com%2Fcss%3Ffamily%3Dnoto%2Bsans%2Bthai;fontSize=30;fontColor=#2F5B7C;fillColor=#FFFFFF;gradientColor=none;arcSize=24;" vertex="1" parent="1">
          <mxGeometry x="150" y="340" width="170" height="50" as="geometry" />
        </mxCell>
        <mxCell id="NJPSFqTKnOia2GW7wcEC-1599" value="&lt;font style=&quot;font-size: 20px;&quot;&gt;HIV p24 &lt;br&gt;antigen testing&lt;/font&gt;" style="rounded=1;whiteSpace=wrap;html=1;shadow=0;strokeColor=#2F5B7C;strokeWidth=3;align=center;verticalAlign=middle;fontFamily=noto sans thai;fontSource=https%3A%2F%2Ffonts.googleapis.com%2Fcss%3Ffamily%3Dnoto%2Bsans%2Bthai;fontSize=30;fontColor=#2F5B7C;fillColor=#FFFFFF;gradientColor=none;arcSize=24;" vertex="1" parent="1">
          <mxGeometry x="360" y="329.5" width="190" height="71" as="geometry" />
        </mxCell>
        <mxCell id="NJPSFqTKnOia2GW7wcEC-1600" value="&lt;font style=&quot;font-size: 20px;&quot;&gt;NAT &lt;br&gt;(Nucleic Acid Testing)&lt;/font&gt;" style="rounded=1;whiteSpace=wrap;html=1;shadow=0;strokeColor=#2F5B7C;strokeWidth=3;align=center;verticalAlign=middle;fontFamily=noto sans thai;fontSource=https%3A%2F%2Ffonts.googleapis.com%2Fcss%3Ffamily%3Dnoto%2Bsans%2Bthai;fontSize=30;fontColor=#2F5B7C;fillColor=#FFFFFF;gradientColor=none;arcSize=24;" vertex="1" parent="1">
          <mxGeometry x="70" y="420" width="230" height="80" as="geometry" />
        </mxCell>
        <mxCell id="NJPSFqTKnOia2GW7wcEC-1602" value="&lt;span style=&quot;font-size: 20px;&quot;&gt;Rapid HIV Test&lt;/span&gt;" style="rounded=1;whiteSpace=wrap;html=1;shadow=0;strokeColor=#2F5B7C;strokeWidth=3;align=center;verticalAlign=middle;fontFamily=noto sans thai;fontSource=https%3A%2F%2Ffonts.googleapis.com%2Fcss%3Ffamily%3Dnoto%2Bsans%2Bthai;fontSize=30;fontColor=#2F5B7C;fillColor=#FFFFFF;gradientColor=none;arcSize=24;" vertex="1" parent="1">
          <mxGeometry x="410" y="420" width="170" height="50" as="geometry" />
        </mxCell>
        <mxCell id="NJPSFqTKnOia2GW7wcEC-1604" value="&lt;font style=&quot;font-size: 20px;&quot;&gt;Recency Database Management&lt;/font&gt;" style="rounded=1;whiteSpace=wrap;html=1;shadow=0;strokeColor=#2F5B7C;strokeWidth=3;align=center;verticalAlign=middle;fontFamily=noto sans thai;fontSource=https%3A%2F%2Ffonts.googleapis.com%2Fcss%3Ffamily%3Dnoto%2Bsans%2Bthai;fontSize=30;fontColor=#2F5B7C;fillColor=#FFFFFF;gradientColor=none;arcSize=24;" vertex="1" parent="1">
          <mxGeometry x="90" y="530" width="230" height="80" as="geometry" />
        </mxCell>
        <mxCell id="NJPSFqTKnOia2GW7wcEC-1606" value="&lt;font style=&quot;font-size: 20px;&quot;&gt;ยาต้านรีโทรไวรัส (antiretroviral drugs หรือเรียกย่อว่า ARV)&lt;/font&gt;" style="rounded=1;whiteSpace=wrap;html=1;shadow=0;strokeColor=#2F5B7C;strokeWidth=3;align=center;verticalAlign=middle;fontFamily=noto sans thai;fontSource=https%3A%2F%2Ffonts.googleapis.com%2Fcss%3Ffamily%3Dnoto%2Bsans%2Bthai;fontSize=30;fontColor=#2F5B7C;fillColor=#FFFFFF;gradientColor=none;arcSize=24;" vertex="1" parent="1">
          <mxGeometry x="-10" y="1040" width="320" height="86.75" as="geometry" />
        </mxCell>
        <mxCell id="NJPSFqTKnOia2GW7wcEC-1608" value="&lt;font style=&quot;font-size: 20px;&quot;&gt;ARV หลายชนิดรวมกันเพื่อต่อสู้กับการติดเชื้อ หรือเรียกว่า Antiretroviral therapy (ART)&lt;/font&gt;" style="rounded=1;whiteSpace=wrap;html=1;shadow=0;strokeColor=#2F5B7C;strokeWidth=3;align=center;verticalAlign=middle;fontFamily=noto sans thai;fontSource=https%3A%2F%2Ffonts.googleapis.com%2Fcss%3Ffamily%3Dnoto%2Bsans%2Bthai;fontSize=30;fontColor=#2F5B7C;fillColor=#FFFFFF;gradientColor=none;arcSize=24;" vertex="1" parent="1">
          <mxGeometry x="50" y="1180" width="370" height="86.75" as="geometry" />
        </mxCell>
        <mxCell id="NJPSFqTKnOia2GW7wcEC-1609" value="&lt;font style=&quot;font-size: 20px;&quot;&gt;ยา ARV หลังสัมผัสโรค (post-exposure prophylaxis หรือชื่อย่อว่า PEP)&amp;nbsp;&lt;/font&gt;" style="rounded=1;whiteSpace=wrap;html=1;shadow=0;strokeColor=#2F5B7C;strokeWidth=3;align=center;verticalAlign=middle;fontFamily=noto sans thai;fontSource=https%3A%2F%2Ffonts.googleapis.com%2Fcss%3Ffamily%3Dnoto%2Bsans%2Bthai;fontSize=30;fontColor=#2F5B7C;fillColor=#FFFFFF;gradientColor=none;arcSize=24;" vertex="1" parent="1">
          <mxGeometry x="2170.5" y="740.25" width="370" height="86.75" as="geometry" />
        </mxCell>
        <mxCell id="NJPSFqTKnOia2GW7wcEC-1612" value="&lt;font style=&quot;font-size: 20px;&quot;&gt;ป้องกันการติดเชื้อเอชไอวีก่อนสัมผัสโรค (Pre-exposure prophylaxis หรือชื่อย่อว่า PrEP)&lt;/font&gt;" style="rounded=1;whiteSpace=wrap;html=1;shadow=0;strokeColor=#2F5B7C;strokeWidth=3;align=center;verticalAlign=middle;fontFamily=noto sans thai;fontSource=https%3A%2F%2Ffonts.googleapis.com%2Fcss%3Ffamily%3Dnoto%2Bsans%2Bthai;fontSize=30;fontColor=#2F5B7C;fillColor=#FFFFFF;gradientColor=none;arcSize=24;" vertex="1" parent="1">
          <mxGeometry x="2090" y="843.75" width="370" height="86.75" as="geometry" />
        </mxCell>
        <mxCell id="NJPSFqTKnOia2GW7wcEC-1614" value="&lt;font style=&quot;font-size: 20px;&quot;&gt;มูลนิธิเพื่อนพนักงานบริการ (SWING)&lt;/font&gt;" style="rounded=1;whiteSpace=wrap;html=1;shadow=0;strokeColor=#2F5B7C;strokeWidth=3;align=center;verticalAlign=middle;fontFamily=noto sans thai;fontSource=https%3A%2F%2Ffonts.googleapis.com%2Fcss%3Ffamily%3Dnoto%2Bsans%2Bthai;fontSize=30;fontColor=#2F5B7C;fillColor=#FFFFFF;gradientColor=none;arcSize=24;" vertex="1" parent="1">
          <mxGeometry x="1729" y="1270" width="320" height="56.75" as="geometry" />
        </mxCell>
        <mxCell id="NJPSFqTKnOia2GW7wcEC-1616" value="&lt;font style=&quot;font-size: 20px;&quot;&gt;สถาบันเพื่อการวิจัย และนวัตกรรมด้านเอชไอวี (IHRI)&lt;/font&gt;" style="rounded=1;whiteSpace=wrap;html=1;shadow=0;strokeColor=#2F5B7C;strokeWidth=3;align=center;verticalAlign=middle;fontFamily=noto sans thai;fontSource=https%3A%2F%2Ffonts.googleapis.com%2Fcss%3Ffamily%3Dnoto%2Bsans%2Bthai;fontSize=30;fontColor=#2F5B7C;fillColor=#FFFFFF;gradientColor=none;arcSize=24;" vertex="1" parent="1">
          <mxGeometry x="970" y="1600" width="270" height="70" as="geometry" />
        </mxCell>
        <mxCell id="NJPSFqTKnOia2GW7wcEC-1617" value="&lt;font style=&quot;font-size: 20px;&quot;&gt;ศูนย์วิจัยโรคเอดส์สภากาชาดไทย (คลินิคนิรนาม)&lt;/font&gt;" style="rounded=1;whiteSpace=wrap;html=1;shadow=0;strokeColor=#2F5B7C;strokeWidth=3;align=center;verticalAlign=middle;fontFamily=noto sans thai;fontSource=https%3A%2F%2Ffonts.googleapis.com%2Fcss%3Ffamily%3Dnoto%2Bsans%2Bthai;fontSize=30;fontColor=#2F5B7C;fillColor=#FFFFFF;gradientColor=none;arcSize=24;" vertex="1" parent="1">
          <mxGeometry x="980" y="1506.75" width="270" height="70" as="geometry" />
        </mxCell>
        <mxCell id="NJPSFqTKnOia2GW7wcEC-1618" value="&lt;font style=&quot;font-size: 20px;&quot;&gt;สมาคมแพทย์โรคติดต่อทางเพศสัมพันธ์แห่งประเทศไทย&lt;/font&gt;" style="rounded=1;whiteSpace=wrap;html=1;shadow=0;strokeColor=#2F5B7C;strokeWidth=3;align=center;verticalAlign=middle;fontFamily=noto sans thai;fontSource=https%3A%2F%2Ffonts.googleapis.com%2Fcss%3Ffamily%3Dnoto%2Bsans%2Bthai;fontSize=30;fontColor=#2F5B7C;fillColor=#FFFFFF;gradientColor=none;arcSize=24;" vertex="1" parent="1">
          <mxGeometry x="750" y="1430" width="270" height="70" as="geometry" />
        </mxCell>
        <mxCell id="NJPSFqTKnOia2GW7wcEC-1619" value="&lt;font style=&quot;font-size: 20px;&quot;&gt;คณะทำงานคาดประมาณสถานการณ์&lt;br&gt;เอชไอวี/เอดส์ ประเทศไทย (AEM)&lt;/font&gt;" style="rounded=1;whiteSpace=wrap;html=1;shadow=0;strokeColor=#2F5B7C;strokeWidth=3;align=center;verticalAlign=middle;fontFamily=noto sans thai;fontSource=https%3A%2F%2Ffonts.googleapis.com%2Fcss%3Ffamily%3Dnoto%2Bsans%2Bthai;fontSize=30;fontColor=#2F5B7C;fillColor=#FFFFFF;gradientColor=none;arcSize=24;" vertex="1" parent="1">
          <mxGeometry x="630" y="1520" width="330" height="70" as="geometry" />
        </mxCell>
        <mxCell id="NJPSFqTKnOia2GW7wcEC-1620" value="&lt;font style=&quot;font-size: 20px;&quot;&gt;คณะทำงานคาดประมาณสถานการณ์&lt;br&gt;เอชไอวี/เอดส์ ประเทศไทย (AEM)&lt;/font&gt;" style="rounded=1;whiteSpace=wrap;html=1;shadow=0;strokeColor=#2F5B7C;strokeWidth=3;align=center;verticalAlign=middle;fontFamily=noto sans thai;fontSource=https%3A%2F%2Ffonts.googleapis.com%2Fcss%3Ffamily%3Dnoto%2Bsans%2Bthai;fontSize=30;fontColor=#2F5B7C;fillColor=#FFFFFF;gradientColor=none;arcSize=24;" vertex="1" parent="1">
          <mxGeometry x="500" y="1340" width="330" height="70" as="geometry" />
        </mxCell>
        <mxCell id="NJPSFqTKnOia2GW7wcEC-1621" value="&lt;font style=&quot;font-size: 20px;&quot;&gt;สำนักการแพทย์ กทม.&lt;/font&gt;" style="rounded=1;whiteSpace=wrap;html=1;shadow=0;strokeColor=#2F5B7C;strokeWidth=3;align=center;verticalAlign=middle;fontFamily=noto sans thai;fontSource=https%3A%2F%2Ffonts.googleapis.com%2Fcss%3Ffamily%3Dnoto%2Bsans%2Bthai;fontSize=30;fontColor=#2F5B7C;fillColor=#FFFFFF;gradientColor=none;arcSize=24;" vertex="1" parent="1">
          <mxGeometry x="1630" y="1373.25" width="260" height="56.75" as="geometry" />
        </mxCell>
        <mxCell id="NJPSFqTKnOia2GW7wcEC-1622" value="&lt;font style=&quot;font-size: 20px;&quot;&gt;โรงพยาบาลตากสิน, ...&lt;/font&gt;" style="rounded=1;whiteSpace=wrap;html=1;shadow=0;strokeColor=#2F5B7C;strokeWidth=3;align=center;verticalAlign=middle;fontFamily=noto sans thai;fontSource=https%3A%2F%2Ffonts.googleapis.com%2Fcss%3Ffamily%3Dnoto%2Bsans%2Bthai;fontSize=30;fontColor=#2F5B7C;fillColor=#FFFFFF;gradientColor=none;arcSize=24;" vertex="1" parent="1">
          <mxGeometry x="1780" y="1450" width="260" height="56.75" as="geometry" />
        </mxCell>
        <mxCell id="NJPSFqTKnOia2GW7wcEC-1623" value="&lt;font style=&quot;font-size: 20px;&quot;&gt;สำนักอนามัย กทม.&lt;/font&gt;" style="rounded=1;whiteSpace=wrap;html=1;shadow=0;strokeColor=#2F5B7C;strokeWidth=3;align=center;verticalAlign=middle;fontFamily=noto sans thai;fontSource=https%3A%2F%2Ffonts.googleapis.com%2Fcss%3Ffamily%3Dnoto%2Bsans%2Bthai;fontSize=30;fontColor=#2F5B7C;fillColor=#FFFFFF;gradientColor=none;arcSize=24;" vertex="1" parent="1">
          <mxGeometry x="1500" y="1490" width="260" height="56.75" as="geometry" />
        </mxCell>
        <mxCell id="NJPSFqTKnOia2GW7wcEC-1624" value="&lt;font style=&quot;font-size: 20px;&quot;&gt;ศูนย์บริการสาธารณสุข 1-69, ...&lt;/font&gt;" style="rounded=1;whiteSpace=wrap;html=1;shadow=0;strokeColor=#2F5B7C;strokeWidth=3;align=center;verticalAlign=middle;fontFamily=noto sans thai;fontSource=https%3A%2F%2Ffonts.googleapis.com%2Fcss%3Ffamily%3Dnoto%2Bsans%2Bthai;fontSize=30;fontColor=#2F5B7C;fillColor=#FFFFFF;gradientColor=none;arcSize=24;" vertex="1" parent="1">
          <mxGeometry x="1590" y="1574.94" width="270" height="56.75" as="geometry" />
        </mxCell>
        <mxCell id="NJPSFqTKnOia2GW7wcEC-1625" value="&lt;font style=&quot;font-size: 20px;&quot;&gt;ศูนย์พัทยารักษ์ สคร.6 ชลบุรี&lt;/font&gt;" style="rounded=1;whiteSpace=wrap;html=1;shadow=0;strokeColor=#2F5B7C;strokeWidth=3;align=center;verticalAlign=middle;fontFamily=noto sans thai;fontSource=https%3A%2F%2Ffonts.googleapis.com%2Fcss%3Ffamily%3Dnoto%2Bsans%2Bthai;fontSize=30;fontColor=#2F5B7C;fillColor=#FFFFFF;gradientColor=none;arcSize=24;" vertex="1" parent="1">
          <mxGeometry x="1580" y="1680" width="280" height="56.75" as="geometry" />
        </mxCell>
        <mxCell id="NJPSFqTKnOia2GW7wcEC-1626" value="&lt;font style=&quot;font-size: 20px;&quot;&gt;คลินิกสุขภาพชุมชนแทนเจอรีน&lt;/font&gt;" style="rounded=1;whiteSpace=wrap;html=1;shadow=0;strokeColor=#2F5B7C;strokeWidth=3;align=center;verticalAlign=middle;fontFamily=noto sans thai;fontSource=https%3A%2F%2Ffonts.googleapis.com%2Fcss%3Ffamily%3Dnoto%2Bsans%2Bthai;fontSize=30;fontColor=#2F5B7C;fillColor=#FFFFFF;gradientColor=none;arcSize=24;" vertex="1" parent="1">
          <mxGeometry x="1580" y="1760" width="290" height="56.75" as="geometry" />
        </mxCell>
        <mxCell id="NJPSFqTKnOia2GW7wcEC-1627" value="&lt;font style=&quot;font-size: 20px;&quot;&gt;สมาคมวางแผนครอบครัว&lt;br&gt;แห่งประเทศไทยฯ&lt;/font&gt;" style="rounded=1;whiteSpace=wrap;html=1;shadow=0;strokeColor=#2F5B7C;strokeWidth=3;align=center;verticalAlign=middle;fontFamily=noto sans thai;fontSource=https%3A%2F%2Ffonts.googleapis.com%2Fcss%3Ffamily%3Dnoto%2Bsans%2Bthai;fontSize=30;fontColor=#2F5B7C;fillColor=#FFFFFF;gradientColor=none;arcSize=24;" vertex="1" parent="1">
          <mxGeometry x="1120" y="1810" width="250" height="73.25" as="geometry" />
        </mxCell>
        <mxCell id="NJPSFqTKnOia2GW7wcEC-1628" value="&lt;font style=&quot;font-size: 20px;&quot;&gt;HIV-NAT ศูนย์ประสานความร่วมมือระหว่างไทย-ออสเตรเลีย-เนเธอร์แลนด์ เพื่อการศึกษาวิจัยด้านโรคเอดส์&lt;/font&gt;" style="rounded=1;whiteSpace=wrap;html=1;shadow=0;strokeColor=#2F5B7C;strokeWidth=3;align=center;verticalAlign=middle;fontFamily=noto sans thai;fontSource=https%3A%2F%2Ffonts.googleapis.com%2Fcss%3Ffamily%3Dnoto%2Bsans%2Bthai;fontSize=30;fontColor=#2F5B7C;fillColor=#FFFFFF;gradientColor=none;arcSize=24;" vertex="1" parent="1">
          <mxGeometry x="874" y="1700" width="470" height="80" as="geometry" />
        </mxCell>
        <mxCell id="NJPSFqTKnOia2GW7wcEC-1629" value="&lt;font style=&quot;font-size: 20px;&quot;&gt;มูลนิธิรักษ์ไทยอยู่ระหว่างพัฒนา โปรแกรม RTF-MIS&lt;/font&gt;" style="rounded=1;whiteSpace=wrap;html=1;shadow=0;strokeColor=#2F5B7C;strokeWidth=3;align=center;verticalAlign=middle;fontFamily=noto sans thai;fontSource=https%3A%2F%2Ffonts.googleapis.com%2Fcss%3Ffamily%3Dnoto%2Bsans%2Bthai;fontSize=30;fontColor=#2F5B7C;fillColor=#FFFFFF;gradientColor=none;arcSize=24;" vertex="1" parent="1">
          <mxGeometry x="1380" y="1870" width="300" height="70" as="geometry" />
        </mxCell>
        <mxCell id="NJPSFqTKnOia2GW7wcEC-1631" value="&lt;font style=&quot;font-size: 20px;&quot;&gt;Hepatitis B and C Surveillance&lt;/font&gt;" style="rounded=1;whiteSpace=wrap;html=1;shadow=0;strokeColor=#2F5B7C;strokeWidth=3;align=center;verticalAlign=middle;fontFamily=noto sans thai;fontSource=https%3A%2F%2Ffonts.googleapis.com%2Fcss%3Ffamily%3Dnoto%2Bsans%2Bthai;fontSize=30;fontColor=#2F5B7C;fillColor=#FFFFFF;gradientColor=none;arcSize=24;" vertex="1" parent="1">
          <mxGeometry x="-855" y="730" width="310" height="50" as="geometry" />
        </mxCell>
        <mxCell id="NJPSFqTKnOia2GW7wcEC-1633" value="TB" style="ellipse;whiteSpace=wrap;html=1;shadow=0;fontFamily=noto sans thai;fontSize=30;fontColor=#2F5B7C;align=center;strokeColor=#2F5B7C;strokeWidth=3;fillColor=#FFFFFF;fontStyle=1;gradientColor=none;fontSource=https%3A%2F%2Ffonts.googleapis.com%2Fcss%3Ffamily%3Dnoto%2Bsans%2Bthai;" vertex="1" parent="1">
          <mxGeometry x="-260" y="660" width="140" height="70" as="geometry" />
        </mxCell>
        <mxCell id="NJPSFqTKnOia2GW7wcEC-1634" value="HBV &amp;amp; HCV" style="ellipse;whiteSpace=wrap;html=1;shadow=0;fontFamily=noto sans thai;fontSize=30;fontColor=#2F5B7C;align=center;strokeColor=#2F5B7C;strokeWidth=3;fillColor=#FFFFFF;fontStyle=1;gradientColor=none;fontSource=https%3A%2F%2Ffonts.googleapis.com%2Fcss%3Ffamily%3Dnoto%2Bsans%2Bthai;" vertex="1" parent="1">
          <mxGeometry x="-470" y="747" width="160" height="80.5" as="geometry" />
        </mxCell>
        <mxCell id="NJPSFqTKnOia2GW7wcEC-1635" value="Syphilis" style="ellipse;whiteSpace=wrap;html=1;shadow=0;fontFamily=noto sans thai;fontSize=30;fontColor=#2F5B7C;align=center;strokeColor=#2F5B7C;strokeWidth=3;fillColor=#FFFFFF;fontStyle=1;gradientColor=none;fontSource=https%3A%2F%2Ffonts.googleapis.com%2Fcss%3Ffamily%3Dnoto%2Bsans%2Bthai;" vertex="1" parent="1">
          <mxGeometry x="-430" y="890" width="160" height="80.5" as="geometry" />
        </mxCell>
        <mxCell id="NJPSFqTKnOia2GW7wcEC-1636" value="เรื้อน" style="ellipse;whiteSpace=wrap;html=1;shadow=0;fontFamily=noto sans thai;fontSize=30;fontColor=#2F5B7C;align=center;strokeColor=#2F5B7C;strokeWidth=3;fillColor=#FFFFFF;fontStyle=1;gradientColor=none;fontSource=https%3A%2F%2Ffonts.googleapis.com%2Fcss%3Ffamily%3Dnoto%2Bsans%2Bthai;" vertex="1" parent="1">
          <mxGeometry x="-310" y="972" width="160" height="80.5" as="geometry" />
        </mxCell>
        <mxCell id="NJPSFqTKnOia2GW7wcEC-1639" value="&lt;span style=&quot;font-size: 20px;&quot;&gt;แม่และเด็ก + &lt;br&gt;หญิงตั้งครรภ์&lt;/span&gt;" style="rounded=1;whiteSpace=wrap;html=1;shadow=0;strokeColor=#2F5B7C;strokeWidth=3;align=center;verticalAlign=middle;fontFamily=noto sans thai;fontSource=https%3A%2F%2Ffonts.googleapis.com%2Fcss%3Ffamily%3Dnoto%2Bsans%2Bthai;fontSize=30;fontColor=#2F5B7C;fillColor=#FFFFFF;gradientColor=none;arcSize=24;" vertex="1" parent="1">
          <mxGeometry x="1880" y="494" width="154" height="74" as="geometry" />
        </mxCell>
        <mxCell id="NJPSFqTKnOia2GW7wcEC-1640" value="&lt;font style=&quot;font-size: 20px;&quot;&gt;PHIMS - กรมอนามัย (แม่และเด็ก)&lt;/font&gt;" style="rounded=1;whiteSpace=wrap;html=1;shadow=0;strokeColor=#2F5B7C;strokeWidth=3;align=center;verticalAlign=middle;fontFamily=noto sans thai;fontSource=https%3A%2F%2Ffonts.googleapis.com%2Fcss%3Ffamily%3Dnoto%2Bsans%2Bthai;fontSize=30;fontColor=#2F5B7C;fillColor=#FFFFFF;gradientColor=none;arcSize=24;" vertex="1" parent="1">
          <mxGeometry x="2080" y="424" width="370" height="56" as="geometry" />
        </mxCell>
        <mxCell id="NJPSFqTKnOia2GW7wcEC-1641" value="&lt;font style=&quot;font-size: 20px;&quot;&gt;กองควบคุมโรคเอดส์ วัณโรคและโรคติดต่อทางเพศสัมพันธ์&lt;/font&gt;" style="rounded=1;whiteSpace=wrap;html=1;shadow=0;strokeColor=#2F5B7C;strokeWidth=3;align=center;verticalAlign=middle;fontFamily=noto sans thai;fontSource=https%3A%2F%2Ffonts.googleapis.com%2Fcss%3Ffamily%3Dnoto%2Bsans%2Bthai;fontSize=30;fontColor=#2F5B7C;fillColor=#FFFFFF;gradientColor=none;arcSize=24;" vertex="1" parent="1">
          <mxGeometry x="380" y="1430" width="270" height="70" as="geometry" />
        </mxCell>
        <mxCell id="NJPSFqTKnOia2GW7wcEC-1642" value="&lt;span style=&quot;font-size: 20px;&quot;&gt;นักเรียนและวัยรุ่น&lt;/span&gt;" style="rounded=1;whiteSpace=wrap;html=1;shadow=0;strokeColor=#2F5B7C;strokeWidth=3;align=center;verticalAlign=middle;fontFamily=noto sans thai;fontSource=https%3A%2F%2Ffonts.googleapis.com%2Fcss%3Ffamily%3Dnoto%2Bsans%2Bthai;fontSize=30;fontColor=#2F5B7C;fillColor=#FFFFFF;gradientColor=none;arcSize=24;" vertex="1" parent="1">
          <mxGeometry x="1916" y="329.5" width="154" height="50" as="geometry" />
        </mxCell>
        <mxCell id="NJPSFqTKnOia2GW7wcEC-1643" value="&lt;font style=&quot;font-size: 20px;&quot;&gt;STU Online - แบบสอบถามพฤติกรรม&lt;br&gt;สุขภาพสำหรับนักเรียน&lt;/font&gt;" style="rounded=1;whiteSpace=wrap;html=1;shadow=0;strokeColor=#2F5B7C;strokeWidth=3;align=center;verticalAlign=middle;fontFamily=noto sans thai;fontSource=https%3A%2F%2Ffonts.googleapis.com%2Fcss%3Ffamily%3Dnoto%2Bsans%2Bthai;fontSize=30;fontColor=#2F5B7C;fillColor=#FFFFFF;gradientColor=none;arcSize=24;" vertex="1" parent="1">
          <mxGeometry x="2110" y="290" width="370" height="62" as="geometry" />
        </mxCell>
        <mxCell id="NJPSFqTKnOia2GW7wcEC-1644" value="&lt;font style=&quot;font-size: 20px;&quot;&gt;Congenital Syphilis response System เด็ก &amp;lt;2 ปี&lt;/font&gt;" style="rounded=1;whiteSpace=wrap;html=1;shadow=0;strokeColor=#2F5B7C;strokeWidth=3;align=center;verticalAlign=middle;fontFamily=noto sans thai;fontSource=https%3A%2F%2Ffonts.googleapis.com%2Fcss%3Ffamily%3Dnoto%2Bsans%2Bthai;fontSize=30;fontColor=#2F5B7C;fillColor=#FFFFFF;gradientColor=none;arcSize=24;" vertex="1" parent="1">
          <mxGeometry x="2120" y="503" width="471" height="56" as="geometry" />
        </mxCell>
        <mxCell id="NJPSFqTKnOia2GW7wcEC-1645" value="&lt;font style=&quot;font-size: 20px;&quot;&gt;Congenital Syphilis Key Online&amp;nbsp;- เด็ก &amp;lt;2 ปี&lt;/font&gt;" style="rounded=1;whiteSpace=wrap;html=1;shadow=0;strokeColor=#2F5B7C;strokeWidth=3;align=center;verticalAlign=middle;fontFamily=noto sans thai;fontSource=https%3A%2F%2Ffonts.googleapis.com%2Fcss%3Ffamily%3Dnoto%2Bsans%2Bthai;fontSize=30;fontColor=#2F5B7C;fillColor=#FFFFFF;gradientColor=none;arcSize=24;" vertex="1" parent="1">
          <mxGeometry x="2110" y="580" width="420" height="56" as="geometry" />
        </mxCell>
        <mxCell id="NJPSFqTKnOia2GW7wcEC-1646" value="&lt;font style=&quot;font-size: 20px;&quot;&gt;TBCM online&lt;/font&gt;" style="rounded=1;whiteSpace=wrap;html=1;shadow=0;strokeColor=#2F5B7C;strokeWidth=3;align=center;verticalAlign=middle;fontFamily=noto sans thai;fontSource=https%3A%2F%2Ffonts.googleapis.com%2Fcss%3Ffamily%3Dnoto%2Bsans%2Bthai;fontSize=30;fontColor=#2F5B7C;fillColor=#FFFFFF;gradientColor=none;arcSize=24;" vertex="1" parent="1">
          <mxGeometry x="-422.5" y="455.25" width="190" height="50" as="geometry" />
        </mxCell>
        <mxCell id="NJPSFqTKnOia2GW7wcEC-1647" value="&lt;font style=&quot;font-size: 20px;&quot;&gt;NTIP - National Tuberculosis Programe (Nation TB Program)&amp;nbsp;&lt;/font&gt;" style="rounded=1;whiteSpace=wrap;html=1;shadow=0;strokeColor=#2F5B7C;strokeWidth=3;align=center;verticalAlign=middle;fontFamily=noto sans thai;fontSource=https%3A%2F%2Ffonts.googleapis.com%2Fcss%3Ffamily%3Dnoto%2Bsans%2Bthai;fontSize=30;fontColor=#2F5B7C;fillColor=#FFFFFF;gradientColor=none;arcSize=24;" vertex="1" parent="1">
          <mxGeometry x="349" y="30" width="332" height="70" as="geometry" />
        </mxCell>
        <mxCell id="NJPSFqTKnOia2GW7wcEC-1648" value="&lt;font style=&quot;font-size: 20px;&quot;&gt;Viral Hepatitis B &amp;amp; C Screening&lt;/font&gt;" style="rounded=1;whiteSpace=wrap;html=1;shadow=0;strokeColor=#2F5B7C;strokeWidth=3;align=center;verticalAlign=middle;fontFamily=noto sans thai;fontSource=https%3A%2F%2Ffonts.googleapis.com%2Fcss%3Ffamily%3Dnoto%2Bsans%2Bthai;fontSize=30;fontColor=#2F5B7C;fillColor=#FFFFFF;gradientColor=none;arcSize=24;" vertex="1" parent="1">
          <mxGeometry x="-835" y="810.5" width="310" height="50" as="geometry" />
        </mxCell>
        <mxCell id="NJPSFqTKnOia2GW7wcEC-1649" value="&lt;font style=&quot;&quot;&gt;&lt;font style=&quot;font-size: 20px;&quot;&gt;PrEP Thai (ฐานข้อมูล PrEP2START,&amp;nbsp; &lt;br&gt;Index and SNS Program)&lt;/font&gt;&lt;br&gt;&lt;/font&gt;" style="rounded=1;whiteSpace=wrap;html=1;shadow=0;strokeColor=#2F5B7C;strokeWidth=3;align=center;verticalAlign=middle;fontFamily=noto sans thai;fontSource=https%3A%2F%2Ffonts.googleapis.com%2Fcss%3Ffamily%3Dnoto%2Bsans%2Bthai;fontSize=30;fontColor=#2F5B7C;fillColor=#FFFFFF;gradientColor=none;arcSize=24;" vertex="1" parent="1">
          <mxGeometry x="2530" y="850.5" width="370" height="80" as="geometry" />
        </mxCell>
        <mxCell id="NJPSFqTKnOia2GW7wcEC-1650" value="&lt;font style=&quot;font-size: 20px;&quot;&gt;TPT-HIV รายงานผลรักษา&lt;br&gt;การติดเชื้อวัณโรคระยะแฝง&lt;/font&gt;" style="rounded=1;whiteSpace=wrap;html=1;shadow=0;strokeColor=#2F5B7C;strokeWidth=3;align=center;verticalAlign=middle;fontFamily=noto sans thai;fontSource=https%3A%2F%2Ffonts.googleapis.com%2Fcss%3Ffamily%3Dnoto%2Bsans%2Bthai;fontSize=30;fontColor=#2F5B7C;fillColor=#FFFFFF;gradientColor=none;arcSize=24;" vertex="1" parent="1">
          <mxGeometry x="-607.5" y="536.75" width="250" height="70" as="geometry" />
        </mxCell>
        <mxCell id="NJPSFqTKnOia2GW7wcEC-1651" value="&lt;font style=&quot;font-size: 20px;&quot;&gt;AIDS Surveillance System&lt;br&gt;&lt;span style=&quot;&quot;&gt;เว็บสารสนเทศการเฝ้าระวังทางระบาดวิทยา&lt;/span&gt;&lt;br&gt;&lt;/font&gt;" style="rounded=1;whiteSpace=wrap;html=1;shadow=0;strokeColor=#2F5B7C;strokeWidth=3;align=center;verticalAlign=middle;fontFamily=noto sans thai;fontSource=https%3A%2F%2Ffonts.googleapis.com%2Fcss%3Ffamily%3Dnoto%2Bsans%2Bthai;fontSize=30;fontColor=#2F5B7C;fillColor=#FFFFFF;gradientColor=none;arcSize=24;" vertex="1" parent="1">
          <mxGeometry x="748" y="30" width="332" height="70" as="geometry" />
        </mxCell>
        <mxCell id="NJPSFqTKnOia2GW7wcEC-1652" value="System" style="ellipse;whiteSpace=wrap;html=1;shadow=0;fontFamily=noto sans thai;fontSize=30;fontColor=#2F5B7C;align=center;strokeColor=#2F5B7C;strokeWidth=3;fillColor=#FFFFFF;fontStyle=1;gradientColor=none;fontSource=https%3A%2F%2Ffonts.googleapis.com%2Fcss%3Ffamily%3Dnoto%2Bsans%2Bthai;" vertex="1" parent="1">
          <mxGeometry x="970" y="417" width="140" height="70" as="geometry" />
        </mxCell>
        <mxCell id="NJPSFqTKnOia2GW7wcEC-1653" value="Report" style="ellipse;whiteSpace=wrap;html=1;shadow=0;fontFamily=noto sans thai;fontSize=30;fontColor=#2F5B7C;align=center;strokeColor=#2F5B7C;strokeWidth=3;fillColor=#FFFFFF;fontStyle=1;gradientColor=none;fontSource=https%3A%2F%2Ffonts.googleapis.com%2Fcss%3Ffamily%3Dnoto%2Bsans%2Bthai;" vertex="1" parent="1">
          <mxGeometry x="725" y="334" width="140" height="70" as="geometry" />
        </mxCell>
        <mxCell id="NJPSFqTKnOia2GW7wcEC-1655" value="&lt;font style=&quot;font-size: 20px;&quot;&gt;TB Urine LAM program (Lab)&lt;/font&gt;" style="rounded=1;whiteSpace=wrap;html=1;shadow=0;strokeColor=#2F5B7C;strokeWidth=3;align=center;verticalAlign=middle;fontFamily=noto sans thai;fontSource=https%3A%2F%2Ffonts.googleapis.com%2Fcss%3Ffamily%3Dnoto%2Bsans%2Bthai;fontSize=30;fontColor=#2F5B7C;fillColor=#FFFFFF;gradientColor=none;arcSize=24;" vertex="1" parent="1">
          <mxGeometry x="-302.5" y="536.75" width="210" height="66.5" as="geometry" />
        </mxCell>
        <mxCell id="NJPSFqTKnOia2GW7wcEC-1656" value="&lt;font style=&quot;font-size: 20px;&quot;&gt;DQI AIDS -&amp;nbsp;เครื่องมือ DQI&amp;nbsp;&lt;/font&gt;" style="rounded=1;whiteSpace=wrap;html=1;shadow=0;strokeColor=#2F5B7C;strokeWidth=3;align=center;verticalAlign=middle;fontFamily=noto sans thai;fontSource=https%3A%2F%2Ffonts.googleapis.com%2Fcss%3Ffamily%3Dnoto%2Bsans%2Bthai;fontSize=30;fontColor=#2F5B7C;fillColor=#FFFFFF;gradientColor=none;arcSize=24;" vertex="1" parent="1">
          <mxGeometry x="810" y="120" width="320" height="70" as="geometry" />
        </mxCell>
        <mxCell id="NJPSFqTKnOia2GW7wcEC-1658" value="&lt;font style=&quot;font-size: 20px;&quot;&gt;HIVST Buddy Station - โครงการศึกษาการเข้าถึงบริการ Self HIV Testing&lt;br style=&quot;font-size: 20px;&quot;&gt;&lt;/font&gt;" style="rounded=1;whiteSpace=wrap;html=1;shadow=0;strokeColor=#2F5B7C;strokeWidth=3;align=center;verticalAlign=middle;fontFamily=noto sans thai;fontSource=https%3A%2F%2Ffonts.googleapis.com%2Fcss%3Ffamily%3Dnoto%2Bsans%2Bthai;fontSize=20;fontColor=#2F5B7C;fillColor=#FFFFFF;gradientColor=none;arcSize=24;" vertex="1" parent="1">
          <mxGeometry x="2150" y="990" width="370" height="80" as="geometry" />
        </mxCell>
        <mxCell id="NJPSFqTKnOia2GW7wcEC-1659" value="&lt;font style=&quot;font-size: 20px;&quot;&gt;&lt;div style=&quot;font-size: 20px;&quot;&gt;CRS - Crisis Response System&lt;/div&gt;&lt;div style=&quot;font-size: 20px;&quot;&gt;ระบบรับเรื่องร้องเรียนและคุ้มครองการละเมิดสิทธิ&lt;/div&gt;&lt;/font&gt;" style="rounded=1;whiteSpace=wrap;html=1;shadow=0;strokeColor=#2F5B7C;strokeWidth=3;align=center;verticalAlign=middle;fontFamily=noto sans thai;fontSource=https%3A%2F%2Ffonts.googleapis.com%2Fcss%3Ffamily%3Dnoto%2Bsans%2Bthai;fontSize=20;fontColor=#2F5B7C;fillColor=#FFFFFF;gradientColor=none;arcSize=24;" vertex="1" parent="1">
          <mxGeometry x="2070" y="1100" width="370" height="80" as="geometry" />
        </mxCell>
        <mxCell id="NJPSFqTKnOia2GW7wcEC-1660" value="&lt;font style=&quot;font-size: 20px;&quot;&gt;THCR - TB/HIV Cross Border Referral System (ส่งต่อผู้ป่วยฯ ข้ามประเทศ)&lt;/font&gt;" style="rounded=1;whiteSpace=wrap;html=1;shadow=0;strokeColor=#2F5B7C;strokeWidth=3;align=center;verticalAlign=middle;fontFamily=noto sans thai;fontSource=https%3A%2F%2Ffonts.googleapis.com%2Fcss%3Ffamily%3Dnoto%2Bsans%2Bthai;fontSize=30;fontColor=#2F5B7C;fillColor=#FFFFFF;gradientColor=none;arcSize=24;" vertex="1" parent="1">
          <mxGeometry x="1150" y="140" width="350" height="80" as="geometry" />
        </mxCell>
        <mxCell id="NJPSFqTKnOia2GW7wcEC-1661" value="&lt;div style=&quot;font-size: 20px;&quot;&gt;&lt;font style=&quot;font-size: 20px;&quot;&gt;RDIS - RRTTPR data integration system&lt;/font&gt;&lt;/div&gt;&lt;div style=&quot;font-size: 20px;&quot;&gt;&lt;font style=&quot;font-size: 20px;&quot;&gt;ระบบรวบรวมและรายงานผลการดำเนินงานภายใต้มาตรการ RRTTPR&lt;/font&gt;&lt;/div&gt;" style="rounded=1;whiteSpace=wrap;html=1;shadow=0;strokeColor=#2F5B7C;strokeWidth=3;align=center;verticalAlign=middle;fontFamily=noto sans thai;fontSource=https%3A%2F%2Ffonts.googleapis.com%2Fcss%3Ffamily%3Dnoto%2Bsans%2Bthai;fontSize=30;fontColor=#2F5B7C;fillColor=#FFFFFF;gradientColor=none;arcSize=24;" vertex="1" parent="1">
          <mxGeometry x="30" y="180" width="390" height="70" as="geometry" />
        </mxCell>
        <mxCell id="NJPSFqTKnOia2GW7wcEC-1662" value="&lt;span style=&quot;font-size: 20px;&quot;&gt;ผู้บริการทางเพศ&lt;/span&gt;" style="rounded=1;whiteSpace=wrap;html=1;shadow=0;strokeColor=#2F5B7C;strokeWidth=3;align=center;verticalAlign=middle;fontFamily=noto sans thai;fontSource=https%3A%2F%2Ffonts.googleapis.com%2Fcss%3Ffamily%3Dnoto%2Bsans%2Bthai;fontSize=30;fontColor=#2F5B7C;fillColor=#FFFFFF;gradientColor=none;arcSize=24;" vertex="1" parent="1">
          <mxGeometry x="1820" y="230" width="154" height="50" as="geometry" />
        </mxCell>
        <mxCell id="NJPSFqTKnOia2GW7wcEC-1663" value="&lt;font style=&quot;font-size: 20px;&quot;&gt;POPMAPS - โปรแกรมสำรวจสถานบริการทางเพศ และผู้ให้บริการทางเพศ ประเทศไทย&lt;/font&gt;" style="rounded=1;whiteSpace=wrap;html=1;shadow=0;strokeColor=#2F5B7C;strokeWidth=3;align=center;verticalAlign=middle;fontFamily=noto sans thai;fontSource=https%3A%2F%2Ffonts.googleapis.com%2Fcss%3Ffamily%3Dnoto%2Bsans%2Bthai;fontSize=30;fontColor=#2F5B7C;fillColor=#FFFFFF;gradientColor=none;arcSize=24;" vertex="1" parent="1">
          <mxGeometry x="2024" y="160" width="370" height="62" as="geometry" />
        </mxCell>
        <mxCell id="NJPSFqTKnOia2GW7wcEC-1664" value="&lt;span style=&quot;font-size: 20px;&quot;&gt;ผู้ติดสารเสพติด&lt;/span&gt;" style="rounded=1;whiteSpace=wrap;html=1;shadow=0;strokeColor=#2F5B7C;strokeWidth=3;align=center;verticalAlign=middle;fontFamily=noto sans thai;fontSource=https%3A%2F%2Ffonts.googleapis.com%2Fcss%3Ffamily%3Dnoto%2Bsans%2Bthai;fontSize=30;fontColor=#2F5B7C;fillColor=#FFFFFF;gradientColor=none;arcSize=24;" vertex="1" parent="1">
          <mxGeometry x="1706" y="374" width="154" height="50" as="geometry" />
        </mxCell>
        <mxCell id="NJPSFqTKnOia2GW7wcEC-1665" value="&lt;span style=&quot;font-size: 20px;&quot;&gt;ผู้บริจาคเลือด&lt;/span&gt;" style="rounded=1;whiteSpace=wrap;html=1;shadow=0;strokeColor=#2F5B7C;strokeWidth=3;align=center;verticalAlign=middle;fontFamily=noto sans thai;fontSource=https%3A%2F%2Ffonts.googleapis.com%2Fcss%3Ffamily%3Dnoto%2Bsans%2Bthai;fontSize=30;fontColor=#2F5B7C;fillColor=#FFFFFF;gradientColor=none;arcSize=24;" vertex="1" parent="1">
          <mxGeometry x="1630" y="290" width="154" height="50" as="geometry" />
        </mxCell>
        <mxCell id="NJPSFqTKnOia2GW7wcEC-1666" value="&lt;span style=&quot;font-size: 20px;&quot;&gt;ผู้ต้องขัง&lt;/span&gt;" style="rounded=1;whiteSpace=wrap;html=1;shadow=0;strokeColor=#2F5B7C;strokeWidth=3;align=center;verticalAlign=middle;fontFamily=noto sans thai;fontSource=https%3A%2F%2Ffonts.googleapis.com%2Fcss%3Ffamily%3Dnoto%2Bsans%2Bthai;fontSize=30;fontColor=#2F5B7C;fillColor=#FFFFFF;gradientColor=none;arcSize=24;" vertex="1" parent="1">
          <mxGeometry x="1540" y="400.5" width="154" height="50" as="geometry" />
        </mxCell>
        <mxCell id="NJPSFqTKnOia2GW7wcEC-1667" value="&lt;span style=&quot;font-size: 20px;&quot;&gt;ถุงยางอนามัย&lt;/span&gt;" style="rounded=1;whiteSpace=wrap;html=1;shadow=0;strokeColor=#2F5B7C;strokeWidth=3;align=center;verticalAlign=middle;fontFamily=noto sans thai;fontSource=https%3A%2F%2Ffonts.googleapis.com%2Fcss%3Ffamily%3Dnoto%2Bsans%2Bthai;fontSize=30;fontColor=#2F5B7C;fillColor=#FFFFFF;gradientColor=none;arcSize=24;" vertex="1" parent="1">
          <mxGeometry x="2148" y="670" width="190" height="50" as="geometry" />
        </mxCell>
        <mxCell id="NJPSFqTKnOia2GW7wcEC-1669" value="etc." style="ellipse;whiteSpace=wrap;html=1;shadow=0;fontFamily=noto sans thai;fontSize=30;fontColor=#2F5B7C;align=center;strokeColor=#2F5B7C;strokeWidth=3;fillColor=#FFFFFF;fontStyle=1;gradientColor=none;fontSource=https%3A%2F%2Ffonts.googleapis.com%2Fcss%3Ffamily%3Dnoto%2Bsans%2Bthai;" vertex="1" parent="1">
          <mxGeometry x="-140" y="920" width="160" height="80.5" as="geometry" />
        </mxCell>
      </root>
    </mxGraphModel>
  </diagram>
</mxfile>
